# This file uses centimeters as units for non-parametric coordinates.

mtllib floorTile.mtl
g default
v -50.000000 -3.750000 50.000000
v 50.000000 -3.750000 50.000000
v -50.000000 3.750000 50.000000
v 50.000000 3.750000 50.000000
v -50.000000 3.750000 -50.000000
v 50.000000 3.750000 -50.000000
v -50.000000 -3.750000 -50.000000
v 50.000000 -3.750000 -50.000000
vt 0.075384 0.990649
vt 0.012088 0.077822
vt 0.075772 0.077849
vt 0.075411 0.926965
vt 0.924888 0.078211
vt 0.924527 0.927326
vt 0.988571 0.078238
vt 0.077738 0.083185
vt 0.918272 0.921777
vt 0.078709 0.922748
vt 0.924915 0.014527
vt 0.924499 0.991010
vt 0.011727 0.926938
vt 0.988210 0.927353
vt 0.917301 0.082214
vt 0.075799 0.014166
vn 0.000000 0.000000 1.000000
vn 0.000000 0.000000 1.000000
vn 0.000000 0.000000 1.000000
vn 0.000000 0.000000 1.000000
vn 0.000000 1.000000 0.000000
vn 0.000000 1.000000 0.000000
vn 0.000000 1.000000 0.000000
vn 0.000000 1.000000 0.000000
vn 0.000000 0.000000 -1.000000
vn 0.000000 0.000000 -1.000000
vn 0.000000 0.000000 -1.000000
vn 0.000000 0.000000 -1.000000
vn 0.000000 -1.000000 0.000000
vn 0.000000 -1.000000 0.000000
vn 0.000000 -1.000000 0.000000
vn 0.000000 -1.000000 0.000000
vn 1.000000 0.000000 0.000000
vn 1.000000 0.000000 0.000000
vn 1.000000 0.000000 0.000000
vn 1.000000 0.000000 0.000000
vn -1.000000 0.000000 0.000000
vn -1.000000 0.000000 0.000000
vn -1.000000 0.000000 0.000000
vn -1.000000 0.000000 0.000000
s off
g floorTile:floorTile
usemtl floorTile:initialShadingGroup
f 1/13/1 2/2/2 4/3/3 3/4/4
f 3/4/5 4/3/6 6/5/7 5/6/8
f 5/6/9 6/5/10 8/7/11 7/14/12
f 7/8/13 8/15/14 2/9/15 1/10/16
f 2/16/17 8/11/18 6/5/19 4/3/20
f 7/12/21 1/1/22 3/4/23 5/6/24
