# This file uses feet as units for non-parametric coordinates.

mtllib radioDial.mtl
g default
v 66.006966 20.365196 -72.833071
v 66.967388 18.480252 -72.833071
v 68.463293 16.984353 -72.833071
v 70.348236 16.023923 -72.833071
v 72.437709 15.692983 -72.833071
v 74.527189 16.023923 -72.833071
v 76.412133 16.984353 -72.833071
v 77.908030 18.480254 -72.833071
v 78.868459 20.365197 -72.833071
v 79.199398 22.454674 -72.833071
v 78.868459 24.544150 -72.833071
v 77.908030 26.429094 -72.833071
v 76.412133 27.924993 -72.833071
v 74.527189 28.885422 -72.833071
v 72.437709 29.216361 -72.833071
v 70.348236 28.885420 -72.833071
v 68.463293 27.924993 -72.833071
v 66.967388 26.429094 -72.833071
v 66.006966 24.544150 -72.833071
v 65.676020 22.454674 -72.833071
v 65.702687 20.266330 -64.750866
v 66.708554 18.292198 -64.750866
v 68.275238 16.725518 -64.750866
v 70.249370 15.719645 -64.750866
v 72.437709 15.373045 -64.750866
v 74.626055 15.719645 -64.750866
v 76.600187 16.725518 -64.750866
v 78.166864 18.292200 -64.750866
v 79.172738 20.266331 -64.750866
v 79.519337 22.454674 -64.750866
v 79.172738 24.643016 -64.750866
v 78.166864 26.617148 -64.750866
v 76.600187 28.183827 -64.750866
v 74.626055 29.189701 -64.750866
v 72.437709 29.536299 -64.750866
v 70.249370 29.189699 -64.750866
v 68.275238 28.183827 -64.750866
v 66.708554 26.617148 -64.750866
v 65.702687 24.643016 -64.750866
v 65.356082 22.454674 -64.750866
v 72.437709 22.454674 -72.833071
v 65.702687 20.266330 -64.750866
v 66.708554 18.292198 -64.750866
v 72.437709 22.454674 -64.750866
v 68.275238 16.725518 -64.750866
v 70.249370 15.719645 -64.750866
v 72.437709 15.373045 -64.750866
v 74.626055 15.719645 -64.750866
v 76.600187 16.725518 -64.750866
v 78.166864 18.292200 -64.750866
v 79.172738 20.266331 -64.750866
v 79.519337 22.454674 -64.750866
v 79.172738 24.643016 -64.750866
v 78.166864 26.617148 -64.750866
v 76.600187 28.183827 -64.750866
v 74.626055 29.189701 -64.750866
v 72.437709 29.536299 -64.750866
v 70.249370 29.189699 -64.750866
v 68.275238 28.183827 -64.750866
v 66.708554 26.617148 -64.750866
v 65.702687 24.643016 -64.750866
v 65.356082 22.454674 -64.750866
v 66.865454 20.644135 -66.215423
v 67.697663 19.010827 -66.215423
v 68.993868 17.714627 -66.215423
v 70.627176 16.882412 -66.215423
v 72.437709 16.595651 -66.215423
v 74.248249 16.882412 -66.215423
v 75.881557 17.714627 -66.215423
v 77.177756 19.010829 -66.215423
v 78.009971 20.644137 -66.215423
v 78.296729 22.454673 -66.215423
v 78.009971 24.265210 -66.215423
v 77.177756 25.898518 -66.215423
v 75.881557 27.194719 -66.215423
v 74.248249 28.026933 -66.215423
v 72.437709 28.313692 -66.215423
v 70.627176 28.026932 -66.215423
v 68.993868 27.194719 -66.215423
v 67.697663 25.898518 -66.215423
v 66.865454 24.265210 -66.215423
v 66.578689 22.454673 -66.215423
vt 0.648603 0.107966
vt 0.626409 0.064408
vt 0.591842 0.029841
vt 0.548284 0.007647
vt 0.500000 -0.000000
vt 0.451716 0.007647
vt 0.408159 0.029841
vt 0.373591 0.064409
vt 0.351397 0.107966
vt 0.343750 0.156250
vt 0.351397 0.204534
vt 0.373591 0.248091
vt 0.408159 0.282659
vt 0.451716 0.304853
vt 0.500000 0.312500
vt 0.548284 0.304853
vt 0.591841 0.282659
vt 0.626409 0.248091
vt 0.648603 0.204534
vt 0.656250 0.156250
vt 0.046672 0.312500
vt 0.092005 0.312500
vt 0.137338 0.312500
vt 0.182670 0.312500
vt 0.228003 0.312500
vt 0.273336 0.312500
vt 0.318669 0.312500
vt 0.364002 0.312500
vt 0.409334 0.312500
vt 0.454667 0.312500
vt 0.500000 0.312500
vt 0.545333 0.312500
vt 0.590665 0.312500
vt 0.635998 0.312500
vt 0.681331 0.312500
vt 0.726664 0.312500
vt 0.771997 0.312500
vt 0.817329 0.312500
vt 0.862662 0.312500
vt 0.907995 0.312500
vt 0.953328 0.312500
vt 0.046672 0.688440
vt 0.092005 0.688440
vt 0.137338 0.688440
vt 0.182670 0.688440
vt 0.228003 0.688440
vt 0.273336 0.688440
vt 0.318669 0.688440
vt 0.364002 0.688440
vt 0.409334 0.688440
vt 0.454667 0.688440
vt 0.500000 0.688440
vt 0.545333 0.688440
vt 0.590665 0.688440
vt 0.635998 0.688440
vt 0.681331 0.688440
vt 0.726664 0.688440
vt 0.771997 0.688440
vt 0.817329 0.688440
vt 0.862662 0.688440
vt 0.907995 0.688440
vt 0.953328 0.688440
vt 0.648603 0.795466
vt 0.626409 0.751908
vt 0.591842 0.717341
vt 0.548284 0.695147
vt 0.500000 0.687500
vt 0.451716 0.695147
vt 0.408159 0.717341
vt 0.373591 0.751909
vt 0.351397 0.795466
vt 0.343750 0.843750
vt 0.351397 0.892034
vt 0.373591 0.935591
vt 0.408159 0.970159
vt 0.451716 0.992353
vt 0.500000 1.000000
vt 0.548284 0.992353
vt 0.591841 0.970159
vt 0.626409 0.935591
vt 0.648603 0.892034
vt 0.656250 0.843750
vt 0.500000 0.150000
vt 0.500000 0.837500
vt 0.648603 0.892034
vt 0.626409 0.935591
vt 0.591841 0.970159
vt 0.548284 0.992353
vt 0.500000 1.000000
vt 0.451716 0.992353
vt 0.408159 0.970159
vt 0.373591 0.935591
vt 0.351397 0.892034
vt 0.343750 0.843750
vt 0.351397 0.795466
vt 0.373591 0.751909
vt 0.408159 0.717341
vt 0.451716 0.695147
vt 0.500000 0.687500
vt 0.548284 0.695147
vt 0.591842 0.717341
vt 0.626409 0.751908
vt 0.648603 0.795466
vt 0.656250 0.843750
vt 0.953328 0.623509
vt 0.046672 0.623509
vt 0.092005 0.623509
vt 0.137338 0.623509
vt 0.182670 0.623509
vt 0.228003 0.623509
vt 0.273336 0.623509
vt 0.318669 0.623509
vt 0.364002 0.623509
vt 0.409334 0.623509
vt 0.454667 0.623509
vt 0.500000 0.623509
vt 0.545333 0.623509
vt 0.590665 0.623509
vt 0.635998 0.623509
vt 0.681331 0.623509
vt 0.726664 0.623509
vt 0.771997 0.623509
vt 0.817329 0.623509
vt 0.862662 0.623509
vt 0.907995 0.623509
vn -0.949849 -0.308625 -0.050382
vn -0.807989 -0.587039 -0.050382
vn -0.621057 -0.451225 -0.640847
vn -0.730097 -0.237223 -0.640847
vn -0.587039 -0.807990 -0.050381
vn -0.451224 -0.621057 -0.640847
vn -0.308625 -0.949849 -0.050382
vn -0.237223 -0.730096 -0.640847
vn -0.000000 -0.998730 -0.050382
vn 0.000000 -0.767669 -0.640847
vn 0.308625 -0.949849 -0.050382
vn 0.237223 -0.730096 -0.640847
vn 0.587040 -0.807989 -0.050382
vn 0.451225 -0.621057 -0.640847
vn 0.807990 -0.587039 -0.050381
vn 0.621057 -0.451225 -0.640847
vn 0.949849 -0.308625 -0.050382
vn 0.730096 -0.237223 -0.640847
vn 0.998730 -0.000000 -0.050382
vn 0.767669 -0.000000 -0.640847
vn 0.949849 0.308625 -0.050382
vn 0.730096 0.237223 -0.640847
vn 0.807989 0.587039 -0.050381
vn 0.621057 0.451225 -0.640847
vn 0.587039 0.807989 -0.050382
vn 0.451225 0.621057 -0.640847
vn 0.308624 0.949849 -0.050382
vn 0.237223 0.730096 -0.640847
vn -0.000000 0.998730 -0.050382
vn -0.000000 0.767669 -0.640847
vn -0.308625 0.949849 -0.050382
vn -0.237223 0.730096 -0.640847
vn -0.587038 0.807990 -0.050381
vn -0.451224 0.621057 -0.640847
vn -0.807989 0.587039 -0.050382
vn -0.621057 0.451225 -0.640847
vn -0.949849 0.308625 -0.050382
vn -0.730096 0.237223 -0.640847
vn -0.998730 -0.000000 -0.050382
vn -0.767669 -0.000000 -0.640847
vn 0.000000 0.000000 -1.000000
vn 0.000000 -0.000000 -1.000000
vn 0.000000 -0.000000 -1.000000
vn 0.000000 0.000000 -1.000000
vn 0.000000 -0.000000 -1.000000
vn 0.000000 -0.000000 -1.000000
vn 0.000000 -0.000000 -1.000000
vn 0.000000 -0.000000 -1.000000
vn 0.000000 0.000000 -1.000000
vn 0.000000 -0.000000 -1.000000
vn 0.000000 0.000000 -1.000000
vn 0.000000 0.000000 -1.000000
vn 0.000000 -0.000000 -1.000000
vn 0.000000 -0.000000 -1.000000
vn 0.000000 0.000000 -1.000000
vn 0.000000 -0.000000 -1.000000
vn 0.000000 -0.000000 -1.000000
vn 0.000000 -0.000000 -1.000000
vn 0.000000 -0.000000 -1.000000
vn 0.000000 -0.000000 -1.000000
vn 0.000000 -0.000000 -1.000000
vn 0.000000 0.000000 1.000000
vn 0.000000 0.000000 1.000000
vn 0.000000 0.000000 1.000000
vn 0.000000 0.000000 1.000000
vn 0.000000 0.000000 1.000000
vn -0.000000 0.000000 1.000000
vn 0.000000 0.000000 1.000000
vn 0.000000 0.000000 1.000000
vn 0.000000 0.000000 1.000000
vn 0.000000 0.000000 1.000000
vn 0.000000 0.000000 1.000000
vn 0.000000 0.000000 1.000000
vn 0.000000 0.000000 1.000000
vn 0.000000 0.000000 1.000000
vn 0.000000 0.000000 1.000000
vn -0.000000 0.000000 1.000000
vn -0.000000 0.000000 1.000000
vn 0.000000 0.000000 1.000000
vn 0.000000 0.000000 1.000000
vn 0.000000 0.000000 1.000000
vn 0.000000 0.000000 1.000000
vn 0.000000 0.000000 0.000000
vn 0.000000 0.000000 0.000000
vn 0.000000 0.000000 0.000000
vn 0.000000 0.000000 0.000000
vn 0.000000 0.000000 0.000000
vn 0.000000 0.000000 0.000000
vn 0.000000 0.000000 0.000000
vn 0.000000 0.000000 0.000000
vn 0.000000 0.000000 0.000000
vn 0.000000 0.000000 0.000000
vn 0.000000 0.000000 0.000000
vn 0.000000 0.000000 0.000000
vn 0.000000 0.000000 0.000000
vn 0.000000 0.000000 0.000000
vn 0.000000 0.000000 0.000000
vn 0.000000 0.000000 0.000000
vn 0.000000 0.000000 0.000000
vn 0.000000 0.000000 0.000000
vn 0.000000 0.000000 0.000000
vn 0.000000 0.000000 0.000000
vn 0.000000 0.000000 0.000000
vn 0.000000 0.000000 0.000000
vn 0.000000 0.000000 0.000000
vn 0.000000 0.000000 0.000000
vn 0.000000 0.000000 0.000000
vn 0.000000 0.000000 0.000000
vn 0.000000 0.000000 0.000000
vn 0.000000 0.000000 0.000000
vn 0.000000 0.000000 0.000000
vn 0.000000 0.000000 0.000000
vn 0.000000 0.000000 0.000000
vn 0.000000 0.000000 0.000000
vn 0.000000 0.000000 0.000000
vn 0.000000 0.000000 0.000000
vn 0.000000 0.000000 0.000000
vn 0.000000 0.000000 0.000000
vn 0.000000 0.000000 0.000000
vn 0.000000 0.000000 0.000000
vn 0.000000 0.000000 0.000000
vn 0.000000 0.000000 0.000000
vn 0.000000 0.000000 0.000000
vn 0.000000 0.000000 0.000000
vn 0.000000 0.000000 0.000000
vn 0.000000 0.000000 0.000000
vn 0.000000 0.000000 0.000000
vn 0.000000 0.000000 0.000000
vn 0.000000 0.000000 0.000000
vn 0.000000 0.000000 0.000000
vn 0.000000 0.000000 0.000000
vn 0.000000 0.000000 0.000000
vn 0.000000 0.000000 0.000000
vn 0.000000 0.000000 0.000000
vn 0.000000 0.000000 0.000000
vn 0.000000 0.000000 0.000000
vn 0.000000 0.000000 0.000000
vn 0.000000 0.000000 0.000000
vn 0.000000 0.000000 0.000000
vn 0.000000 0.000000 0.000000
vn 0.000000 0.000000 0.000000
vn 0.000000 0.000000 0.000000
vn 0.000000 0.000000 0.000000
vn 0.000000 0.000000 0.000000
vn 0.000000 0.000000 0.000000
vn 0.000000 0.000000 0.000000
vn 0.000000 0.000000 0.000000
vn 0.000000 0.000000 0.000000
vn 0.000000 0.000000 0.000000
vn 0.000000 0.000000 0.000000
vn 0.000000 0.000000 0.000000
vn 0.000000 0.000000 0.000000
vn 0.000000 0.000000 0.000000
vn 0.000000 0.000000 0.000000
vn 0.000000 0.000000 0.000000
vn 0.000000 0.000000 0.000000
vn 0.000000 0.000000 0.000000
vn 0.000000 0.000000 0.000000
vn 0.000000 0.000000 0.000000
vn 0.000000 0.000000 0.000000
vn 0.000000 0.000000 0.000000
vn 0.000000 0.000000 0.000000
vn -0.942330 -0.306182 0.135152
vn -0.801594 -0.582392 0.135152
vn -0.582392 -0.801594 0.135152
vn -0.306182 -0.942330 0.135152
vn -0.000000 -0.990825 0.135152
vn 0.306182 -0.942330 0.135152
vn 0.582393 -0.801594 0.135152
vn 0.801594 -0.582392 0.135152
vn 0.942330 -0.306182 0.135152
vn 0.990825 0.000000 0.135152
vn 0.942330 0.306182 0.135152
vn 0.801594 0.582392 0.135152
vn 0.582393 0.801594 0.135152
vn 0.306182 0.942330 0.135152
vn -0.000000 0.990825 0.135152
vn -0.306182 0.942330 0.135152
vn -0.582392 0.801594 0.135152
vn -0.801594 0.582392 0.135152
vn -0.942331 0.306182 0.135152
vn -0.990825 0.000000 0.135152
s 1
g Dial
usemtl blinn1SG
f 63/106/1 64/107/2 22/43/3 21/42/4
f 64/107/2 65/108/5 23/44/6 22/43/3
f 65/108/5 66/109/7 24/45/8 23/44/6
f 66/109/7 67/110/9 25/46/10 24/45/8
f 67/110/9 68/111/11 26/47/12 25/46/10
f 68/111/11 69/112/13 27/48/14 26/47/12
f 69/112/13 70/113/15 28/49/16 27/48/14
f 70/113/15 71/114/17 29/50/18 28/49/16
f 71/114/17 72/115/19 30/51/20 29/50/18
f 72/115/19 73/116/21 31/52/22 30/51/20
f 73/116/21 74/117/23 32/53/24 31/52/22
f 74/117/23 75/118/25 33/54/26 32/53/24
f 75/118/25 76/119/27 34/55/28 33/54/26
f 76/119/27 77/120/29 35/56/30 34/55/28
f 77/120/29 78/121/31 36/57/32 35/56/30
f 78/121/31 79/122/33 37/58/34 36/57/32
f 79/122/33 80/123/35 38/59/36 37/58/34
f 80/123/35 81/124/37 39/60/38 38/59/36
f 81/124/37 82/125/39 40/61/40 39/60/38
f 82/125/39 63/105/1 21/62/4 40/61/40
s 2
f 2/2/41 1/1/42 41/83/43
f 3/3/44 2/2/41 41/83/43
f 4/4/45 3/3/44 41/83/43
f 5/5/46 4/4/45 41/83/43
f 6/6/47 5/5/46 41/83/43
f 7/7/48 6/6/47 41/83/43
f 8/8/49 7/7/48 41/83/43
f 9/9/50 8/8/49 41/83/43
f 10/10/51 9/9/50 41/83/43
f 11/11/52 10/10/51 41/83/43
f 12/12/53 11/11/52 41/83/43
f 13/13/54 12/12/53 41/83/43
f 14/14/55 13/13/54 41/83/43
f 15/15/56 14/14/55 41/83/43
f 16/16/57 15/15/56 41/83/43
f 17/17/58 16/16/57 41/83/43
f 18/18/59 17/17/58 41/83/43
f 19/19/60 18/18/59 41/83/43
f 20/20/61 19/19/60 41/83/43
f 1/1/42 20/20/61 41/83/43
s 3
f 42/85/62 43/86/63 44/84/64
f 43/86/63 45/87/65 44/84/64
f 45/87/65 46/88/66 44/84/64
f 46/88/66 47/89/67 44/84/64
f 47/89/67 48/90/68 44/84/64
f 48/90/68 49/91/69 44/84/64
f 49/91/69 50/92/70 44/84/64
f 50/92/70 51/93/71 44/84/64
f 51/93/71 52/94/72 44/84/64
f 52/94/72 53/95/73 44/84/64
f 53/95/73 54/96/74 44/84/64
f 54/96/74 55/97/75 44/84/64
f 55/97/75 56/98/76 44/84/64
f 56/98/76 57/99/77 44/84/64
f 57/99/77 58/100/78 44/84/64
f 58/100/78 59/101/79 44/84/64
f 59/101/79 60/102/80 44/84/64
f 60/102/80 61/103/81 44/84/64
f 61/103/81 62/104/82 44/84/64
f 62/104/82 42/85/62 44/84/64
s off
f 21/81/83 22/80/84 43/86/85 42/85/86
f 22/80/87 23/79/88 45/87/89 43/86/90
f 23/79/91 24/78/92 46/88/93 45/87/94
f 24/78/95 25/77/96 47/89/97 46/88/98
f 25/77/99 26/76/100 48/90/101 47/89/102
f 26/76/103 27/75/104 49/91/105 48/90/106
f 27/75/107 28/74/108 50/92/109 49/91/110
f 28/74/111 29/73/112 51/93/113 50/92/114
f 29/73/115 30/72/116 52/94/117 51/93/118
f 30/72/119 31/71/120 53/95/121 52/94/122
f 31/71/123 32/70/124 54/96/125 53/95/126
f 32/70/127 33/69/128 55/97/129 54/96/130
f 33/69/131 34/68/132 56/98/133 55/97/134
f 34/68/135 35/67/136 57/99/137 56/98/138
f 35/67/139 36/66/140 58/100/141 57/99/142
f 36/66/143 37/65/144 59/101/145 58/100/146
f 37/65/147 38/64/148 60/102/149 59/101/150
f 38/64/151 39/63/152 61/103/153 60/102/154
f 39/63/155 40/82/156 62/104/157 61/103/158
f 40/82/159 21/81/160 42/85/161 62/104/162
s 1
f 1/21/163 2/22/164 64/107/2 63/106/1
f 2/22/164 3/23/165 65/108/5 64/107/2
f 3/23/165 4/24/166 66/109/7 65/108/5
f 4/24/166 5/25/167 67/110/9 66/109/7
f 5/25/167 6/26/168 68/111/11 67/110/9
f 6/26/168 7/27/169 69/112/13 68/111/11
f 7/27/169 8/28/170 70/113/15 69/112/13
f 8/28/170 9/29/171 71/114/17 70/113/15
f 9/29/171 10/30/172 72/115/19 71/114/17
f 10/30/172 11/31/173 73/116/21 72/115/19
f 11/31/173 12/32/174 74/117/23 73/116/21
f 12/32/174 13/33/175 75/118/25 74/117/23
f 13/33/175 14/34/176 76/119/27 75/118/25
f 14/34/176 15/35/177 77/120/29 76/119/27
f 15/35/177 16/36/178 78/121/31 77/120/29
f 16/36/178 17/37/179 79/122/33 78/121/31
f 17/37/179 18/38/180 80/123/35 79/122/33
f 18/38/180 19/39/181 81/124/37 80/123/35
f 19/39/181 20/40/182 82/125/39 81/124/37
f 20/40/182 1/41/163 63/105/1 82/125/39
