# author: headus 3D tools
#  using: ply2obj v1.9
#   from: uvlayout v2.10.00
# 24 vertices
v 5.7560000 5.4690000 7.5750000
v 5.7560000 5.4690000 5.7053000
v 7.5933000 5.4690000 5.7053000
v 7.5933000 5.4690000 7.5750000
v 5.7560000 7.2356002 7.5750000
v 7.5933000 7.2356002 7.5750000
v 7.5933000 7.2356002 5.7053000
v 5.7560000 7.2356002 5.7053000
v 5.7560000 5.5088998 7.6302997
v 7.5933000 5.5088998 7.6302997
v 7.5933000 7.1956998 7.6302997
v 5.7560000 7.1956998 7.6302997
v 7.6486000 5.5088998 7.5750000
v 7.6486000 5.5088998 5.7053000
v 7.6486000 7.1956998 5.7053000
v 7.6486000 7.1956998 7.5750000
v 7.5933000 5.5088998 5.6499996
v 5.7560000 5.5088998 5.6499996
v 5.7560000 7.1956998 5.6499996
v 7.5933000 7.1956998 5.6499996
v 5.7007999 5.5088998 5.7053000
v 5.7007999 5.5088998 7.5750000
v 5.7007999 7.1956998 7.5750000
v 5.7007999 7.1956998 5.7053000
# 24 normals
vn -0.341574 -0.875511 0.341574
vn -0.341574 -0.875511 -0.341574
vn 0.341574 -0.875511 -0.341574
vn 0.341574 -0.875511 0.341574
vn -0.341574 0.875511 0.341574
vn 0.341574 0.875511 0.341574
vn 0.341574 0.875511 -0.341574
vn -0.341574 0.875511 -0.341574
vn -0.341482 -0.341574 0.875511
vn 0.341574 -0.341574 0.875511
vn 0.341574 0.341574 0.875511
vn -0.341574 0.341574 0.875511
vn 0.875511 -0.341574 0.341574
vn 0.875511 -0.341574 -0.341574
vn 0.875511 0.341574 -0.341574
vn 0.875511 0.341574 0.341574
vn 0.341482 -0.341574 -0.875511
vn -0.341574 -0.341574 -0.875511
vn -0.341574 0.341574 -0.875511
vn 0.341574 0.341574 -0.875511
vn -0.875511 -0.341574 -0.341574
vn -0.875511 -0.341574 0.341574
vn -0.875511 0.341574 0.341574
vn -0.875511 0.341574 -0.341574
# 46 uv coords
vt 0.596220 0.209761
vt 0.603312 0.216634
vt 0.415823 0.408229
vt 0.408699 0.401185
vt 0.213922 0.210283
vt 0.401496 0.018907
vt 0.598836 0.587081
vt 0.591812 0.580139
vt 0.779165 0.388684
vt 0.786357 0.395658
vt 0.793560 0.777937
vt 0.981133 0.586561
vt 0.593713 0.589864
vt 0.583954 0.588209
vt 0.407781 0.416486
vt 0.405961 0.406682
vt 0.788955 0.390327
vt 0.787093 0.380579
vt 0.601497 0.206835
vt 0.611333 0.208432
vt 0.802266 0.013686
vt 0.977979 0.185881
vt 0.400933 0.790534
vt 0.393838 0.783556
vt 0.591100 0.595087
vt 0.209467 0.620286
vt 0.217517 0.611987
vt 0.386020 0.791616
vt 0.400614 0.409587
vt 0.210445 0.605030
vt 0.794171 0.387541
vt 0.985102 0.192841
vt 0.795164 0.006744
vt 0.604231 0.201445
vt 0.393172 0.798512
vt 0.206694 0.990955
vt 0.199560 0.984009
vt 0.191627 0.992189
vt 0.014991 0.820946
vt 0.022939 0.812748
vt 0.015821 0.805816
vt 0.202301 0.613375
vt 0.197731 0.995269
vt 0.397202 0.789434
vt 0.211231 0.609025
vt 0.011739 0.814884
# 26 polygons
usemtl wire_087225198
s 1
g Box002
f 1/11/1 2/7/2 3/10/3 4/12/4
f 5/5/5 6/6/6 7/1/7 8/4/8
f 9/28/9 10/37/10 11/40/11 12/26/12
f 13/22/13 14/18/14 15/20/15 16/21/16
f 17/9/17 18/8/18 19/3/19 20/2/20
f 21/14/21 22/24/22 23/27/23 24/15/24
s 2
f 9/28/9 22/44/22 1/35/1
f 4/36/4 13/43/13 10/37/10
f 21/14/21 18/8/18 2/13/2
f 3/17/3 17/9/17 14/18/14
f 12/26/12 5/42/5 23/45/23
f 16/46/16 6/41/6 11/40/11
f 24/15/24 8/16/8 19/3/19
f 20/2/20 7/19/7 15/20/15
s 4
f 1/23/1 22/24/22 21/14/21 2/25/2
s 8
f 2/7/2 18/8/18 17/9/17 3/10/3
s 4
f 3/31/3 14/18/14 13/22/13 4/32/4
s 8
f 4/36/4 10/37/10 9/28/9 1/35/1
s 4
f 5/42/5 12/26/12 11/40/11 6/41/6
s 8
f 6/33/6 16/21/16 15/20/15 7/34/7
s 4
f 7/1/7 20/2/20 19/3/19 8/4/8
s 8
f 8/29/8 24/15/24 23/27/23 5/30/5
s 16
f 10/37/10 13/38/13 16/39/16 11/40/11
f 12/26/12 23/27/23 22/24/22 9/28/9
f 14/18/14 17/9/17 20/2/20 15/20/15
f 18/8/18 21/14/21 24/15/24 19/3/19
# h3dt: 24 46 24 26
