# This file uses centimeters as units for non-parametric coordinates.

mtllib flatWall.mtl
g default
v -1.000000 0.023000 0.388000
v 1.000000 0.023000 0.388000
v -1.000000 0.160978 0.256395
v 1.000000 0.160978 0.256395
v -1.000000 0.413984 0.113322
v 1.000000 0.413984 0.113322
v -1.000000 0.666989 0.049360
v 1.000000 0.666989 0.049360
v -1.000000 0.919995 0.049360
v 1.000000 0.919995 0.049360
v -1.000000 1.173001 0.049360
v 1.000000 1.173001 0.049360
v -1.000000 1.426006 0.049360
v 1.000000 1.426006 0.049360
v -1.000000 1.679012 0.049360
v 1.000000 1.679012 0.049360
v -1.000000 1.932017 0.113322
v 1.000000 1.932017 0.113322
v -1.000000 2.185022 0.256395
v 1.000000 2.185022 0.256395
v -1.000000 2.323000 0.388000
v 1.000000 2.323000 0.388000
v -1.000000 2.323000 -0.016498
v 1.000000 2.323000 -0.016498
v -1.000000 2.093000 -0.016498
v 1.000000 2.093000 -0.016498
v -1.000000 1.863000 -0.016498
v 1.000000 1.863000 -0.016498
v -1.000000 1.633000 -0.016498
v 1.000000 1.633000 -0.016498
v -1.000000 1.403000 -0.016498
v 1.000000 1.403000 -0.016498
v -1.000000 1.173000 -0.016498
v 1.000000 1.173000 -0.016498
v -1.000000 0.943000 -0.016498
v 1.000000 0.943000 -0.016498
v -1.000000 0.713000 -0.016498
v 1.000000 0.713000 -0.016498
v -1.000000 0.483000 -0.016498
v 1.000000 0.483000 -0.016498
v -1.000000 0.253001 -0.016498
v 1.000000 0.253001 -0.016498
v -1.000000 0.023000 -0.016498
v 1.000000 0.023000 -0.016498
vt 0.469370 0.986241
vt 0.468481 0.572153
vt 0.507966 0.572072
vt 0.508842 0.986160
vt 0.568154 0.571948
vt 0.569011 0.986037
vt 0.622196 0.571842
vt 0.623029 0.985931
vt 0.674585 0.571742
vt 0.675404 0.985831
vt 0.726982 0.571644
vt 0.727771 0.985732
vt 0.779393 0.571552
vt 0.780123 0.985640
vt 0.831803 0.571467
vt 0.832476 0.985555
vt 0.885842 0.571385
vt 0.886498 0.985474
vt 0.946023 0.571292
vt 0.946673 0.985379
vt 0.985508 0.571231
vt 0.986145 0.985319
vt 0.506055 0.568416
vt 0.091975 0.565778
vt 0.092508 0.482031
vt 0.506591 0.484667
vt 0.092820 0.434411
vt 0.506901 0.437048
vt 0.093132 0.386786
vt 0.507212 0.389435
vt 0.093447 0.339164
vt 0.507525 0.341816
vt 0.093755 0.291541
vt 0.507836 0.294198
vt 0.094071 0.243913
vt 0.508152 0.246586
vt 0.094385 0.196289
vt 0.508465 0.198969
vt 0.094698 0.148667
vt 0.508778 0.151353
vt 0.095014 0.101037
vt 0.509094 0.103743
vt 0.095326 0.053407
vt 0.509406 0.056134
vt 0.095635 0.005785
vt 0.509715 0.008518
vt 0.385625 0.986423
vt 0.384727 0.572334
vt 0.011885 0.005254
vt 0.038949 0.033995
vt 0.068230 0.086573
vt 0.081125 0.139048
vt 0.080780 0.191436
vt 0.080436 0.243824
vt 0.080088 0.296213
vt 0.079750 0.348600
vt 0.066160 0.400897
vt 0.036193 0.453085
vt 0.008757 0.481472
vt 0.593460 0.009048
vt 0.566029 0.037441
vt 0.536067 0.089629
vt 0.522476 0.141919
vt 0.522131 0.194296
vt 0.521788 0.246674
vt 0.521439 0.299052
vt 0.521098 0.351432
vt 0.533998 0.403898
vt 0.563276 0.456472
vt 0.590336 0.485217
vn 0.000000 0.690198 0.723620
vn 0.000000 0.690198 0.723620
vn 0.000000 0.574799 0.818294
vn 0.000000 0.574799 0.818294
vn 0.000000 0.574799 0.818294
vn 0.000000 0.574799 0.818294
vn 0.000000 0.378668 0.925533
vn 0.000000 0.378668 0.925533
vn 0.000000 0.378668 0.925533
vn 0.000000 0.378668 0.925533
vn 0.000000 0.125405 0.992106
vn 0.000000 0.125405 0.992106
vn 0.000000 0.125405 0.992106
vn 0.000000 0.125405 0.992106
vn 0.000000 0.000000 1.000000
vn 0.000000 0.000000 1.000000
vn 0.000000 0.000000 1.000000
vn 0.000000 0.000000 1.000000
vn 0.000000 0.000000 1.000000
vn 0.000000 0.000000 1.000000
vn 0.000000 0.000000 1.000000
vn 0.000000 0.000000 1.000000
vn 0.000000 0.000000 1.000000
vn 0.000000 0.000000 1.000000
vn 0.000000 0.000000 1.000000
vn 0.000000 0.000000 1.000000
vn 0.000000 -0.125405 0.992106
vn 0.000000 -0.125405 0.992106
vn 0.000000 -0.125405 0.992106
vn 0.000000 -0.125405 0.992106
vn 0.000000 -0.378668 0.925533
vn 0.000000 -0.378668 0.925533
vn 0.000000 -0.378668 0.925533
vn 0.000000 -0.378668 0.925533
vn 0.000000 -0.574799 0.818294
vn 0.000000 -0.574799 0.818294
vn 0.000000 -0.574799 0.818294
vn 0.000000 -0.574799 0.818294
vn 0.000000 -0.690198 0.723620
vn 0.000000 -0.690198 0.723620
vn 0.000000 1.000000 0.000000
vn 0.000000 1.000000 0.000000
vn 0.000000 1.000000 0.000000
vn 0.000000 1.000000 0.000000
vn 0.000000 0.000000 -1.000000
vn 0.000000 0.000000 -1.000000
vn 0.000000 0.000000 -1.000000
vn 0.000000 0.000000 -1.000000
vn 0.000000 0.000000 -1.000000
vn 0.000000 0.000000 -1.000000
vn 0.000000 0.000000 -1.000000
vn 0.000000 0.000000 -1.000000
vn 0.000000 0.000000 -1.000000
vn 0.000000 0.000000 -1.000000
vn 0.000000 0.000000 -1.000000
vn 0.000000 0.000000 -1.000000
vn 0.000000 0.000000 -1.000000
vn 0.000000 0.000000 -1.000000
vn 0.000000 0.000000 -1.000000
vn 0.000000 0.000000 -1.000000
vn 0.000000 0.000000 -1.000000
vn 0.000000 0.000000 -1.000000
vn 0.000000 0.000000 -1.000000
vn 0.000000 0.000000 -1.000000
vn 0.000000 0.000000 -1.000000
vn 0.000000 0.000000 -1.000000
vn 0.000000 0.000000 -1.000000
vn 0.000000 0.000000 -1.000000
vn 0.000000 0.000000 -1.000000
vn 0.000000 0.000000 -1.000000
vn 0.000000 0.000000 -1.000000
vn 0.000000 0.000000 -1.000000
vn 0.000000 0.000000 -1.000000
vn 0.000000 0.000000 -1.000000
vn 0.000000 0.000000 -1.000000
vn 0.000000 0.000000 -1.000000
vn 0.000000 0.000000 -1.000000
vn 0.000000 0.000000 -1.000000
vn 0.000000 0.000000 -1.000000
vn 0.000000 0.000000 -1.000000
vn 0.000000 0.000000 -1.000000
vn 0.000000 0.000000 -1.000000
vn 0.000000 0.000000 -1.000000
vn 0.000000 0.000000 -1.000000
vn 0.000000 -1.000000 0.000000
vn 0.000000 -1.000000 0.000000
vn 0.000000 -1.000000 0.000000
vn 0.000000 -1.000000 0.000000
vn 1.000000 0.000000 0.000000
vn 1.000000 0.000000 0.000000
vn 1.000000 0.000000 0.000000
vn 1.000000 0.000000 0.000000
vn 1.000000 0.000000 0.000000
vn 1.000000 0.000000 0.000000
vn 1.000000 0.000000 0.000000
vn 1.000000 0.000000 0.000000
vn 1.000000 0.000000 0.000000
vn 1.000000 0.000000 0.000000
vn 1.000000 0.000000 0.000000
vn 1.000000 0.000000 0.000000
vn 1.000000 0.000000 0.000000
vn 1.000000 0.000000 0.000000
vn 1.000000 0.000000 0.000000
vn 1.000000 0.000000 0.000000
vn 1.000000 0.000000 0.000000
vn 1.000000 0.000000 0.000000
vn 1.000000 0.000000 0.000000
vn 1.000000 0.000000 0.000000
vn 1.000000 0.000000 0.000000
vn 1.000000 0.000000 0.000000
vn 1.000000 0.000000 0.000000
vn 1.000000 0.000000 0.000000
vn 1.000000 0.000000 0.000000
vn 1.000000 0.000000 0.000000
vn 1.000000 0.000000 0.000000
vn 1.000000 0.000000 0.000000
vn 1.000000 0.000000 0.000000
vn 1.000000 0.000000 0.000000
vn 1.000000 0.000000 0.000000
vn 1.000000 0.000000 0.000000
vn 1.000000 0.000000 0.000000
vn 1.000000 0.000000 0.000000
vn 1.000000 0.000000 0.000000
vn 1.000000 0.000000 0.000000
vn 1.000000 0.000000 0.000000
vn 1.000000 0.000000 0.000000
vn 1.000000 0.000000 0.000000
vn 1.000000 0.000000 0.000000
vn -1.000000 0.000000 0.000000
vn -1.000000 0.000000 0.000000
vn -1.000000 0.000000 0.000000
vn -1.000000 0.000000 0.000000
vn -1.000000 0.000000 0.000000
vn -1.000000 0.000000 0.000000
vn -1.000000 0.000000 0.000000
vn -1.000000 0.000000 0.000000
vn -1.000000 0.000000 0.000000
vn -1.000000 0.000000 0.000000
vn -1.000000 0.000000 0.000000
vn -1.000000 0.000000 0.000000
vn -1.000000 0.000000 0.000000
vn -1.000000 0.000000 0.000000
vn -1.000000 0.000000 0.000000
vn -1.000000 0.000000 0.000000
vn -1.000000 0.000000 0.000000
vn -1.000000 0.000000 0.000000
vn -1.000000 0.000000 0.000000
vn -1.000000 0.000000 0.000000
vn -1.000000 0.000000 0.000000
vn -1.000000 0.000000 0.000000
vn -1.000000 0.000000 0.000000
vn -1.000000 0.000000 0.000000
vn -1.000000 0.000000 0.000000
vn -1.000000 0.000000 0.000000
vn -1.000000 0.000000 0.000000
vn -1.000000 0.000000 0.000000
vn -1.000000 0.000000 0.000000
vn -1.000000 0.000000 0.000000
vn -1.000000 0.000000 0.000000
vn -1.000000 0.000000 0.000000
vn -1.000000 0.000000 0.000000
vn -1.000000 0.000000 0.000000
vn -1.000000 0.000000 0.000000
vn -1.000000 0.000000 0.000000
vn -1.000000 0.000000 0.000000
vn -1.000000 0.000000 0.000000
vn -1.000000 0.000000 0.000000
vn -1.000000 0.000000 0.000000
s off
g flatWall:pCube1
usemtl initialShadingGroup
f 1/1/1 2/2/2 4/3/3 3/4/4
f 3/4/5 4/3/6 6/5/7 5/6/8
f 5/6/9 6/5/10 8/7/11 7/8/12
f 7/8/13 8/7/14 10/9/15 9/10/16
f 9/10/17 10/9/18 12/11/19 11/12/20
f 11/12/21 12/11/22 14/13/23 13/14/24
f 13/14/25 14/13/26 16/15/27 15/16/28
f 15/16/29 16/15/30 18/17/31 17/18/32
f 17/18/33 18/17/34 20/19/35 19/20/36
f 19/20/37 20/19/38 22/21/39 21/22/40
f 21/23/41 22/24/42 24/25/43 23/26/44
f 23/26/45 24/25/46 26/27/47 25/28/48
f 25/28/49 26/27/50 28/29/51 27/30/52
f 27/30/53 28/29/54 30/31/55 29/32/56
f 29/32/57 30/31/58 32/33/59 31/34/60
f 31/34/61 32/33/62 34/35/63 33/36/64
f 33/36/65 34/35/66 36/37/67 35/38/68
f 35/38/69 36/37/70 38/39/71 37/40/72
f 37/40/73 38/39/74 40/41/75 39/42/76
f 39/42/77 40/41/78 42/43/79 41/44/80
f 41/44/81 42/43/82 44/45/83 43/46/84
f 43/47/85 44/48/86 2/2/87 1/1/88
f 2/49/89 44/45/90 42/43/91 4/50/92
f 4/50/93 42/43/94 40/41/95 6/51/96
f 6/51/97 40/41/98 38/39/99 8/52/100
f 8/52/101 38/39/102 36/37/103 10/53/104
f 10/53/105 36/37/106 34/35/107 12/54/108
f 12/54/109 34/35/110 32/33/111 14/55/112
f 14/55/113 32/33/114 30/31/115 16/56/116
f 16/56/117 30/31/118 28/29/119 18/57/120
f 18/57/121 28/29/122 26/27/123 20/58/124
f 20/58/125 26/27/126 24/25/127 22/59/128
f 43/46/129 1/60/130 3/61/131 41/44/132
f 41/44/133 3/61/134 5/62/135 39/42/136
f 39/42/137 5/62/138 7/63/139 37/40/140
f 37/40/141 7/63/142 9/64/143 35/38/144
f 35/38/145 9/64/146 11/65/147 33/36/148
f 33/36/149 11/65/150 13/66/151 31/34/152
f 31/34/153 13/66/154 15/67/155 29/32/156
f 29/32/157 15/67/158 17/68/159 27/30/160
f 27/30/161 17/68/162 19/69/163 25/28/164
f 25/28/165 19/69/166 21/70/167 23/26/168
