# This file uses centimeters as units for non-parametric coordinates.

mtllib outWall.mtl
g default
v -0.060313 -1.150000 -0.059962
v -0.060881 -1.150000 0.342662
v 0.344626 -1.150000 -0.059399
v -0.060313 1.150000 -0.059962
v 0.344626 1.150000 -0.059399
v -0.060881 1.150000 0.342662
v -0.060580 -0.920082 -0.060204
v -0.059873 -0.920000 -0.343891
v -0.059873 -1.150000 -0.343891
v -0.344626 -1.150000 -0.060607
v -0.344626 -1.150000 0.343891
v -0.344626 -1.012022 0.212286
v -0.344626 -0.920000 -0.060607
v 0.344626 -1.150000 -0.343891
v 0.213022 -1.012022 -0.343891
v -0.344626 -0.759016 0.069213
v -0.344626 -0.690000 -0.060607
v -0.059873 -0.690000 -0.343891
v 0.069948 -0.759016 -0.343891
v -0.060580 -0.690130 -0.060204
v -0.060134 -1.011677 0.210438
v 0.213022 -1.012022 -0.059399
v -0.344626 -0.506011 0.005251
v -0.344626 -0.460000 -0.060607
v -0.059873 -0.460000 -0.343891
v 0.005986 -0.506011 -0.343891
v -0.060134 -0.758614 0.067803
v 0.069948 -0.759016 -0.059399
v -0.060580 -0.460171 -0.060204
v -0.060134 -0.505611 0.004106
v 0.005986 -0.506011 -0.059399
v -0.344626 -0.253005 0.005251
v -0.344626 -0.230000 -0.060607
v -0.059873 -0.230000 -0.343891
v 0.005986 -0.253005 -0.343891
v -0.060580 -0.230085 -0.060204
v -0.060134 -0.252805 0.004106
v 0.005986 -0.253005 -0.059399
v -0.344626 0.000000 0.005251
v -0.344626 0.000000 -0.060607
v -0.059873 0.000000 -0.343891
v 0.005986 0.000000 -0.343891
v -0.060403 0.000000 -0.060003
v -0.060134 0.000000 0.004392
v 0.005986 0.000000 -0.059399
v -0.344626 0.253006 0.005251
v -0.344626 0.230000 -0.060607
v -0.059873 0.230000 -0.343891
v 0.005986 0.253006 -0.343891
v -0.060580 0.230086 -0.060204
v -0.060134 0.252806 0.004106
v 0.005986 0.253006 -0.059399
v -0.344626 0.506012 0.005251
v -0.344626 0.460000 -0.060607
v -0.059873 0.460000 -0.343891
v 0.005986 0.506012 -0.343891
v -0.060580 0.460172 -0.060204
v -0.060134 0.505612 0.004106
v 0.005986 0.506012 -0.059399
v -0.344626 0.759017 0.069213
v -0.344626 0.690000 -0.060607
v -0.059873 0.690000 -0.343891
v 0.069948 0.759017 -0.343891
v -0.060580 0.690131 -0.060204
v -0.060134 0.758616 0.067803
v 0.069948 0.759017 -0.059399
v -0.344626 1.012022 0.212286
v -0.344626 0.920000 -0.060607
v -0.059873 0.920000 -0.343891
v 0.213022 1.012022 -0.343891
v -0.060580 0.920083 -0.060204
v -0.059873 1.150000 -0.343891
v -0.344626 1.150000 0.343891
v -0.344626 1.150000 -0.060607
v 0.344626 1.150000 -0.343891
v -0.060134 1.011678 0.210438
v 0.213022 1.012022 -0.059399
vt -0.024445 0.365682
vt -0.024683 0.094920
vt 0.054178 0.139173
vt 0.054629 0.321226
vt 1.115215 0.094828
vt 1.115020 0.365593
vt 1.035938 0.321148
vt 1.036360 0.139095
vt 2.331355 0.231256
vt 2.334858 0.096599
vt 2.443836 0.104273
vt 2.439886 0.231317
vt 2.443676 0.358539
vt 2.469031 0.540962
vt 2.390632 0.492086
vt 2.334688 0.366090
vt 2.469361 -0.078145
vt 2.390938 -0.029327
vt -0.159930 0.231209
vt -0.255475 0.136386
vt -0.120587 0.000043
vt 2.260022 0.433568
vt 2.224576 0.369547
vt 2.224758 0.093002
vt 2.260287 0.029039
vt 2.222985 0.231186
vt 2.410550 0.656498
vt 2.333661 0.615054
vt 2.411094 -0.194204
vt 2.334623 -0.152593
vt 2.134752 0.402724
vt 2.113557 0.368414
vt 2.113747 0.093968
vt 2.134992 0.059696
vt 2.217661 0.562761
vt 2.218467 -0.100327
vt 2.113769 0.231105
vt 0.183362 0.187230
vt 0.183813 0.273494
vt 2.111355 0.536379
vt 2.112053 -0.074037
vt 2.012155 0.394067
vt 2.002366 0.364407
vt 2.002555 0.097791
vt 2.012388 0.068137
vt 0.305273 0.208574
vt 0.305616 0.252041
vt 2.003035 0.231017
vt 2.003233 0.527555
vt 2.003784 -0.065376
vt 1.891217 0.392114
vt 1.891238 0.363350
vt 1.891427 0.098678
vt 1.891448 0.069904
vt 1.891332 0.230937
vt 1.891120 0.525747
vt 1.891544 -0.063733
vt 1.770276 0.393890
vt 1.780108 0.364245
vt 1.780300 0.097629
vt 1.770509 0.067961
vt 1.779629 0.230854
vt 1.779005 0.527391
vt 1.779305 -0.065539
vt 1.647669 0.402371
vt 1.668913 0.368092
vt 1.669114 0.093646
vt 1.647918 0.059345
vt 1.668895 0.230783
vt 1.670876 0.536059
vt 1.671048 -0.074355
vt 1.522356 0.433040
vt 1.557893 0.369068
vt 1.558103 0.092523
vt 1.522665 0.028510
vt 1.559679 0.230709
vt 1.564536 0.562291
vt 1.564671 -0.100796
vt 0.784938 0.251961
vt 0.785278 0.208494
vt 0.907191 0.187172
vt 0.906739 0.273436
vt 1.391667 0.491375
vt 1.447787 0.365457
vt 1.447998 0.095964
vt 1.392098 -0.030042
vt 1.451309 0.230627
vt 1.342777 0.230534
vt 1.339009 0.103483
vt 1.313200 0.540141
vt 1.338809 0.357752
vt 1.313745 -0.078972
vt 1.448466 0.614423
vt 1.448590 -0.153227
vt 1.211105 -0.000063
vt 1.346012 0.136260
vt 1.250479 0.231095
vt 1.371519 0.655759
vt 1.372178 -0.194947
vt 0.425271 0.208241
vt 0.425450 0.251709
vt 0.545272 0.208112
vt 0.545280 0.251675
vt 0.665274 0.208197
vt 0.665110 0.251665
vt -0.254980 0.326807
vt -0.118662 0.461719
vt 1.209267 0.461610
vt 1.345550 0.326662
vn 0.583756 0.558486 0.589341
vn 0.583756 0.558486 0.589341
vn 0.611509 0.493358 0.618591
vn 0.611611 0.493068 0.618722
vn 0.583756 -0.558486 0.589341
vn 0.583756 -0.558486 0.589341
vn 0.611611 -0.493068 0.618722
vn 0.611509 -0.493358 0.618591
vn -0.999998 -0.000214 -0.002197
vn -0.999998 -0.000214 -0.002197
vn -0.999998 -0.000519 -0.001953
vn -0.999998 -0.000519 -0.001953
vn -1.000000 0.000000 0.000000
vn -1.000000 0.000000 0.000000
vn -1.000000 0.000000 0.000000
vn -1.000000 0.000000 0.000000
vn 0.000000 0.000000 -1.000000
vn 0.000000 0.000000 -1.000000
vn 0.000000 0.000000 -1.000000
vn 0.000000 0.000000 -1.000000
vn 0.000000 -1.000000 0.000000
vn 0.000000 -1.000000 0.000000
vn 0.000000 -1.000000 0.000000
vn 0.000000 -1.000000 0.000000
vn -1.000000 0.000000 0.000000
vn -1.000000 0.000000 0.000000
vn -1.000000 0.000000 0.000000
vn -1.000000 0.000000 0.000000
vn 0.000000 0.000000 -1.000000
vn 0.000000 0.000000 -1.000000
vn 0.000000 0.000000 -1.000000
vn 0.000000 0.000000 -1.000000
vn 0.000000 -1.000000 0.000000
vn 0.000000 -1.000000 0.000000
vn 0.000000 -1.000000 0.000000
vn -0.999997 0.000000 -0.002411
vn -0.999997 0.000000 -0.002411
vn -0.999998 -0.000214 -0.002197
vn -0.999998 -0.000214 -0.002197
vn 0.003418 0.690616 0.723214
vn 0.003418 0.690616 0.723214
vn 0.003968 0.574283 0.818647
vn 0.003968 0.574954 0.818176
vn 0.723620 0.690198 0.000000
vn 0.723620 0.690198 0.000000
vn 0.818294 0.574799 0.000000
vn 0.818294 0.574799 0.000000
vn -1.000000 0.000000 0.000000
vn -1.000000 0.000000 0.000000
vn -1.000000 0.000000 0.000000
vn -1.000000 0.000000 0.000000
vn 0.000000 0.000000 -1.000000
vn 0.000000 0.000000 -1.000000
vn 0.000000 0.000000 -1.000000
vn 0.000000 0.000000 -1.000000
vn 0.003968 0.574954 0.818176
vn 0.003968 0.574283 0.818647
vn 0.004151 0.377877 0.925847
vn 0.004151 0.378307 0.925671
vn 0.818294 0.574799 0.000000
vn 0.818294 0.574799 0.000000
vn 0.925533 0.378668 0.000000
vn 0.925533 0.378668 0.000000
vn -0.999997 0.000000 -0.002411
vn -0.999997 0.000000 -0.002411
vn -0.999997 0.000000 -0.002411
vn -0.999997 0.000000 -0.002411
vn 0.611611 0.493068 0.618722
vn 0.611509 0.493358 0.618591
vn 0.663031 0.323687 0.674995
vn 0.663170 0.323237 0.675073
vn 0.004151 0.378307 0.925671
vn 0.004151 0.377877 0.925847
vn 0.003968 0.124980 0.992151
vn 0.003968 0.125315 0.992109
vn 0.925533 0.378668 0.000000
vn 0.925533 0.378668 0.000000
vn 0.992106 0.125405 0.000000
vn 0.992106 0.125405 0.000000
vn -1.000000 0.000000 0.000000
vn -1.000000 0.000000 0.000000
vn -1.000000 0.000000 0.000000
vn -1.000000 0.000000 0.000000
vn 0.000000 0.000000 -1.000000
vn 0.000000 0.000000 -1.000000
vn 0.000000 0.000000 -1.000000
vn 0.000000 0.000000 -1.000000
vn 0.663170 0.323237 0.675073
vn 0.663031 0.323687 0.674995
vn 0.691337 0.110818 0.713983
vn 0.691365 0.110268 0.714041
vn -0.999997 0.000122 -0.002258
vn -0.999997 0.000122 -0.002258
vn -0.999997 0.000000 -0.002411
vn -0.999997 0.000000 -0.002411
vn 0.003968 0.125315 0.992109
vn 0.003968 0.124980 0.992151
vn 0.003693 -0.000214 0.999993
vn 0.003693 -0.000214 0.999993
vn 0.992106 0.125405 0.000000
vn 0.992106 0.125405 0.000000
vn 1.000000 0.000000 0.000000
vn 1.000000 0.000000 0.000000
vn -1.000000 0.000000 0.000000
vn -1.000000 0.000000 0.000000
vn -1.000000 0.000000 0.000000
vn -1.000000 0.000000 0.000000
vn 0.000000 0.000000 -1.000000
vn 0.000000 0.000000 -1.000000
vn 0.000000 0.000000 -1.000000
vn 0.000000 0.000000 -1.000000
vn 0.001709 0.000000 -0.999999
vn 0.001709 0.000000 -0.999999
vn 0.001526 0.000153 -0.999999
vn 0.001526 0.000153 -0.999999
vn -0.999998 0.000000 -0.002106
vn -0.999998 0.000000 -0.002106
vn -0.999997 0.000122 -0.002258
vn -0.999997 0.000122 -0.002258
vn 0.003693 -0.000214 0.999993
vn 0.003693 -0.000214 0.999993
vn 0.003449 0.000000 0.999994
vn 0.003449 0.000000 0.999994
vn 1.000000 0.000000 0.000000
vn 1.000000 0.000000 0.000000
vn 1.000000 0.000000 0.000000
vn 1.000000 0.000000 0.000000
vn -1.000000 0.000000 0.000000
vn -1.000000 0.000000 0.000000
vn -1.000000 0.000000 0.000000
vn -1.000000 0.000000 0.000000
vn 0.000000 0.000000 -1.000000
vn 0.000000 0.000000 -1.000000
vn 0.000000 0.000000 -1.000000
vn 0.000000 0.000000 -1.000000
vn 0.001526 -0.000153 -0.999999
vn 0.001526 -0.000153 -0.999999
vn 0.001709 0.000000 -0.999999
vn 0.001709 0.000000 -0.999999
vn -0.999997 -0.000122 -0.002258
vn -0.999997 -0.000122 -0.002258
vn -0.999998 0.000000 -0.002106
vn -0.999998 0.000000 -0.002106
vn 0.003449 0.000000 0.999994
vn 0.003449 0.000000 0.999994
vn 0.003693 0.000214 0.999993
vn 0.003693 0.000214 0.999993
vn 1.000000 0.000000 0.000000
vn 1.000000 0.000000 0.000000
vn 1.000000 0.000000 0.000000
vn 1.000000 0.000000 0.000000
vn -1.000000 0.000000 0.000000
vn -1.000000 0.000000 0.000000
vn -1.000000 0.000000 0.000000
vn -1.000000 0.000000 0.000000
vn 0.000000 0.000000 -1.000000
vn 0.000000 0.000000 -1.000000
vn 0.000000 0.000000 -1.000000
vn 0.000000 0.000000 -1.000000
vn -0.999997 0.000000 -0.002411
vn -0.999997 0.000000 -0.002411
vn -0.999997 -0.000122 -0.002258
vn -0.999997 -0.000122 -0.002258
vn 0.003693 0.000214 0.999993
vn 0.003693 0.000214 0.999993
vn 0.003968 -0.124980 0.992151
vn 0.003968 -0.125315 0.992109
vn 1.000000 0.000000 0.000000
vn 1.000000 0.000000 0.000000
vn 0.992106 -0.125405 0.000000
vn 0.992106 -0.125405 0.000000
vn -1.000000 0.000000 0.000000
vn -1.000000 0.000000 0.000000
vn -1.000000 0.000000 0.000000
vn -1.000000 0.000000 0.000000
vn 0.000000 0.000000 -1.000000
vn 0.000000 0.000000 -1.000000
vn 0.000000 0.000000 -1.000000
vn 0.000000 0.000000 -1.000000
vn -0.999997 0.000000 -0.002411
vn -0.999997 0.000000 -0.002411
vn -0.999997 0.000000 -0.002411
vn -0.999997 0.000000 -0.002411
vn 0.003968 -0.125315 0.992109
vn 0.003968 -0.124980 0.992151
vn 0.004151 -0.377877 0.925847
vn 0.004151 -0.378307 0.925671
vn 0.992106 -0.125405 0.000000
vn 0.992106 -0.125405 0.000000
vn 0.925533 -0.378668 0.000000
vn 0.925533 -0.378668 0.000000
vn 0.691365 -0.110268 0.714041
vn 0.691337 -0.110818 0.713983
vn 0.663031 -0.323687 0.674995
vn 0.663170 -0.323237 0.675073
vn -1.000000 0.000000 0.000000
vn -1.000000 0.000000 0.000000
vn -1.000000 0.000000 0.000000
vn -1.000000 0.000000 0.000000
vn 0.000000 0.000000 -1.000000
vn 0.000000 0.000000 -1.000000
vn 0.000000 0.000000 -1.000000
vn 0.000000 0.000000 -1.000000
vn -0.999998 0.000214 -0.002197
vn -0.999998 0.000214 -0.002197
vn -0.999997 0.000000 -0.002411
vn -0.999997 0.000000 -0.002411
vn -0.999998 0.000519 -0.001953
vn -0.999998 0.000519 -0.001953
vn -0.999998 0.000214 -0.002197
vn -0.999998 0.000214 -0.002197
vn -1.000000 0.000000 0.000000
vn -1.000000 0.000000 0.000000
vn -1.000000 0.000000 0.000000
vn -1.000000 0.000000 0.000000
vn 0.000000 0.000000 -1.000000
vn 0.000000 0.000000 -1.000000
vn 0.000000 0.000000 -1.000000
vn 0.000000 0.000000 -1.000000
vn 0.004151 -0.378307 0.925671
vn 0.004151 -0.377877 0.925847
vn 0.003968 -0.574283 0.818647
vn 0.003968 -0.574954 0.818176
vn 0.925533 -0.378668 0.000000
vn 0.925533 -0.378668 0.000000
vn 0.818294 -0.574799 0.000000
vn 0.818294 -0.574799 0.000000
vn 0.663170 -0.323237 0.675073
vn 0.663031 -0.323687 0.674995
vn 0.611509 -0.493358 0.618591
vn 0.611611 -0.493068 0.618722
vn 0.000000 1.000000 0.000000
vn 0.000000 1.000000 0.000000
vn 0.000000 1.000000 0.000000
vn 0.000000 1.000000 0.000000
vn 0.003968 -0.574954 0.818176
vn 0.003968 -0.574283 0.818647
vn 0.003418 -0.690616 0.723214
vn 0.003418 -0.690616 0.723214
vn 0.818294 -0.574799 0.000000
vn 0.818294 -0.574799 0.000000
vn 0.723620 -0.690198 0.000000
vn 0.723620 -0.690198 0.000000
vn 0.000000 1.000000 0.000000
vn 0.000000 1.000000 0.000000
vn 0.000000 1.000000 0.000000
vn 0.001556 -0.000183 -0.999999
vn 0.001556 -0.000183 -0.999999
vn 0.001770 -0.000458 -0.999998
vn 0.001770 -0.000458 -0.999998
vn 0.001343 0.000000 -0.999999
vn 0.001343 0.000000 -0.999999
vn 0.001556 -0.000183 -0.999999
vn 0.001556 -0.000183 -0.999999
vn 0.001343 0.000000 -0.999999
vn 0.001343 0.000000 -0.999999
vn 0.001343 0.000000 -0.999999
vn 0.001343 0.000000 -0.999999
vn 0.001526 0.000153 -0.999999
vn 0.001526 0.000153 -0.999999
vn 0.001343 0.000000 -0.999999
vn 0.001343 0.000000 -0.999999
vn 0.691337 0.110818 0.713983
vn 0.693146 -0.000122 0.720798
vn 0.693146 -0.000122 0.720798
vn 0.691365 0.110268 0.714041
vn 0.693146 -0.000122 0.720798
vn 0.693472 0.000000 0.720484
vn 0.693472 0.000000 0.720484
vn 0.693146 -0.000122 0.720798
vn 0.001343 0.000000 -0.999999
vn 0.001343 0.000000 -0.999999
vn 0.001526 -0.000153 -0.999999
vn 0.001526 -0.000153 -0.999999
vn 0.693472 0.000000 0.720484
vn 0.693146 0.000122 0.720798
vn 0.693146 0.000122 0.720798
vn 0.693472 0.000000 0.720484
vn 0.001343 0.000000 -0.999999
vn 0.001343 0.000000 -0.999999
vn 0.001343 0.000000 -0.999999
vn 0.001343 0.000000 -0.999999
vn 0.693146 0.000122 0.720798
vn 0.691337 -0.110818 0.713983
vn 0.691365 -0.110268 0.714041
vn 0.693146 0.000122 0.720798
vn 0.001556 0.000183 -0.999999
vn 0.001556 0.000183 -0.999999
vn 0.001343 0.000000 -0.999999
vn 0.001343 0.000000 -0.999999
vn 0.001770 0.000458 -0.999998
vn 0.001770 0.000458 -0.999998
vn 0.001556 0.000183 -0.999999
vn 0.001556 0.000183 -0.999999
vn 0.000000 -1.000000 0.000000
vn 0.000000 -1.000000 0.000000
vn 0.000000 -1.000000 0.000000
vn 0.000000 -1.000000 0.000000
vn 0.000000 1.000000 0.000000
vn 0.000000 1.000000 0.000000
vn 0.000000 1.000000 0.000000
vn 0.000000 1.000000 0.000000
s off
g outWall:pCube7
usemtl initialShadingGroup
f 2/1/1 3/2/2 22/3/3 21/4/4
f 5/5/5 6/6/6 76/7/7 77/8/8
f 7/9/9 8/10/10 9/11/11 1/12/12
f 10/13/13 11/14/14 12/15/15 13/16/16
f 14/17/17 9/11/18 8/10/19 15/18/20
f 1/19/21 9/20/22 14/21/23 3/2/24
f 13/16/25 12/15/26 16/22/27 17/23/28
f 15/18/29 8/10/30 18/24/31 19/25/32
f 1/19/33 3/2/34 2/1/35
f 20/26/36 18/24/37 8/10/38 7/9/39
f 11/14/40 2/27/41 21/28/42 12/15/43
f 3/29/44 14/17/45 15/18/46 22/30/47
f 17/23/48 16/22/49 23/31/50 24/32/51
f 19/25/52 18/24/53 25/33/54 26/34/55
f 12/15/56 21/28/57 27/35/58 16/22/59
f 22/30/60 15/18/61 19/25/62 28/36/63
f 29/37/64 25/33/65 18/24/66 20/26/67
f 21/4/68 22/3/69 28/38/70 27/39/71
f 16/22/72 27/35/73 30/40/74 23/31/75
f 28/36/76 19/25/77 26/34/78 31/41/79
f 24/32/80 23/31/81 32/42/82 33/43/83
f 26/34/84 25/33/85 34/44/86 35/45/87
f 27/39/88 28/38/89 31/46/90 30/47/91
f 36/48/92 34/44/93 25/33/94 29/37/95
f 23/31/96 30/40/97 37/49/98 32/42/99
f 31/41/100 26/34/101 35/45/102 38/50/103
f 33/43/104 32/42/105 39/51/106 40/52/107
f 35/45/108 34/44/109 41/53/110 42/54/111
f 40/52/112 43/55/113 36/48/114 33/43/115
f 43/55/116 41/53/117 34/44/118 36/48/119
f 32/42/120 37/49/121 44/56/122 39/51/123
f 38/50/124 35/45/125 42/54/126 45/57/127
f 40/52/128 39/51/129 46/58/130 47/59/131
f 42/54/132 41/53/133 48/60/134 49/61/135
f 47/59/136 50/62/137 43/55/138 40/52/139
f 50/62/140 48/60/141 41/53/142 43/55/143
f 39/51/144 44/56/145 51/63/146 46/58/147
f 45/57/148 42/54/149 49/61/150 52/64/151
f 47/59/152 46/58/153 53/65/154 54/66/155
f 49/61/156 48/60/157 55/67/158 56/68/159
f 57/69/160 55/67/161 48/60/162 50/62/163
f 46/58/164 51/63/165 58/70/166 53/65/167
f 52/64/168 49/61/169 56/68/170 59/71/171
f 54/66/172 53/65/173 60/72/174 61/73/175
f 56/68/176 55/67/177 62/74/178 63/75/179
f 64/76/180 62/74/181 55/67/182 57/69/183
f 53/65/184 58/70/185 65/77/186 60/72/187
f 59/71/188 56/68/189 63/75/190 66/78/191
f 58/79/192 59/80/193 66/81/194 65/82/195
f 61/73/196 60/72/197 67/83/198 68/84/199
f 63/75/200 62/74/201 69/85/202 70/86/203
f 71/87/204 69/85/205 62/74/206 64/76/207
f 4/88/208 72/89/209 69/85/210 71/87/211
f 68/84/212 67/83/213 73/90/214 74/91/215
f 70/86/216 69/85/217 72/89/218 75/92/219
f 60/72/220 65/77/221 76/93/222 67/83/223
f 66/78/224 63/75/225 70/86/226 77/94/227
f 65/82/228 66/81/229 77/8/230 76/7/231
f 5/5/232 75/95/233 72/96/234 4/97/235
f 67/83/236 76/93/237 6/98/238 73/90/239
f 77/94/240 70/86/241 75/92/242 5/99/243
f 5/5/244 4/97/245 6/6/246
f 13/16/247 7/9/248 1/12/249 10/13/250
f 17/23/251 20/26/252 7/9/253 13/16/254
f 24/32/255 29/37/256 20/26/257 17/23/258
f 33/43/259 36/48/260 29/37/261 24/32/262
f 31/46/263 38/100/264 37/101/265 30/47/266
f 38/100/267 45/102/268 44/103/269 37/101/270
f 54/66/271 57/69/272 50/62/273 47/59/274
f 45/102/275 52/104/276 51/105/277 44/103/278
f 61/73/279 64/76/280 57/69/281 54/66/282
f 52/104/283 59/80/284 58/79/285 51/105/286
f 68/84/287 71/87/288 64/76/289 61/73/290
f 74/91/291 4/88/292 71/87/293 68/84/294
f 10/106/295 1/19/296 2/1/297 11/107/298
f 73/108/299 6/6/300 4/97/301 74/109/302
