# 3ds Max Wavefront OBJ Exporter v0.97b - (c)2007 guruware
# File Created: 27.01.2018 21:56:40

mtllib CT_LargeButtonStand.mtl

#
# object Cylinder001
#

v  3.8612 0.0000 1.0485
v  2.9247 0.0000 2.4499
v  1.5232 0.0000 3.3864
v  -0.1299 0.0000 3.7152
v  -1.7831 0.0000 3.3864
v  -3.1846 0.0000 2.4499
v  -4.1210 0.0000 1.0485
v  -4.4499 0.0000 -0.6047
v  -4.1210 0.0000 -2.2579
v  -3.1846 0.0000 -3.6594
v  -1.7831 0.0000 -4.5958
v  -0.1299 0.0000 -4.9247
v  1.5232 0.0000 -4.5958
v  2.9247 0.0000 -3.6594
v  3.8612 0.0000 -2.2579
v  4.1900 0.0000 -0.6047
v  3.5099 0.5170 -2.1124
v  3.8098 0.5170 -0.6047
v  2.6559 0.5170 -3.3905
v  1.3778 0.5170 -4.2446
v  -0.1299 0.5170 -4.5445
v  -1.6376 0.5170 -4.2446
v  -2.9157 0.5170 -3.3905
v  -3.7698 0.5170 -2.1124
v  -4.0697 0.5170 -0.6047
v  -3.7698 0.5170 0.9030
v  -2.9157 0.5170 2.1811
v  -1.6376 0.5170 3.0351
v  -0.1299 0.5170 3.3350
v  1.3778 0.5170 3.0351
v  2.6559 0.5170 2.1811
v  3.5099 0.5170 0.9030
v  3.0826 1.0341 -1.9354
v  3.3472 1.0341 -0.6047
v  2.3288 1.0341 -3.0634
v  1.2007 1.0341 -3.8172
v  -0.1299 1.0341 -4.0819
v  -1.4606 1.0341 -3.8172
v  -2.5886 1.0341 -3.0634
v  -3.3424 1.0341 -1.9354
v  -3.6071 1.0341 -0.6047
v  -3.3424 1.0341 0.7259
v  -2.5886 1.0341 1.8540
v  -1.4606 1.0341 2.6078
v  -0.1299 1.0341 2.8724
v  1.2007 1.0341 2.6078
v  2.3288 1.0341 1.8540
v  3.0826 1.0341 0.7259
v  2.9379 0.2748 0.6660
v  3.1907 0.2748 -0.6047
v  2.9379 0.2748 -1.8755
v  2.2181 0.2748 -2.9527
v  1.1408 0.2748 -3.6726
v  -0.1299 0.2748 -3.9253
v  -1.4007 0.2748 -3.6726
v  -2.4780 0.2748 -2.9527
v  -3.1978 0.2748 -1.8755
v  -3.4505 0.2748 -0.6047
v  -3.1978 0.2748 0.6660
v  -2.4780 0.2748 1.7433
v  -1.4007 0.2748 2.4631
v  -0.1299 0.2748 2.7159
v  1.1408 0.2748 2.4631
v  2.2181 0.2748 1.7433
v  3.0826 1.4167 -1.9354
v  3.3472 1.4167 -0.6047
v  2.3288 1.4167 -3.0634
v  1.2007 1.4167 -3.8172
v  -0.1299 1.4167 -4.0819
v  -1.4606 1.4167 -3.8172
v  -2.5886 1.4167 -3.0634
v  -3.3424 1.4167 -1.9354
v  -3.6071 1.4167 -0.6047
v  -3.3424 1.4167 0.7259
v  -2.5886 1.4167 1.8540
v  -1.4606 1.4167 2.6078
v  -0.1299 1.4167 2.8724
v  1.2007 1.4167 2.6078
v  2.3288 1.4167 1.8540
v  3.0826 1.4167 0.7259
v  2.9379 1.4167 -1.8755
v  3.1907 1.4167 -0.6047
v  2.2181 1.4167 -2.9527
v  1.1408 1.4167 -3.6726
v  -0.1299 1.4167 -3.9253
v  -1.4007 1.4167 -3.6726
v  -2.4780 1.4167 -2.9527
v  -3.1978 1.4167 -1.8755
v  -3.4505 1.4167 -0.6047
v  -3.1978 1.4167 0.6660
v  -2.4780 1.4167 1.7433
v  -1.4007 1.4167 2.4631
v  -0.1299 1.4167 2.7159
v  1.1408 1.4167 2.4631
v  2.2181 1.4167 1.7433
v  2.9379 1.4167 0.6660
# 96 vertices

vn 0.8418 -0.4120 0.3487
vn 0.6443 -0.4120 0.6443
vn 0.3487 -0.4120 0.8418
vn 0.0000 -0.4120 0.9112
vn -0.3487 -0.4120 0.8418
vn -0.6443 -0.4120 0.6443
vn -0.8418 -0.4120 0.3487
vn -0.9112 -0.4120 -0.0000
vn -0.8418 -0.4120 -0.3487
vn -0.6443 -0.4120 -0.6443
vn -0.3487 -0.4120 -0.8418
vn 0.0000 -0.4120 -0.9112
vn 0.3487 -0.4120 -0.8418
vn 0.6443 -0.4120 -0.6443
vn 0.8418 -0.4120 -0.3487
vn 0.9112 -0.4120 -0.0000
vn 0.7194 0.6274 -0.2980
vn 0.7787 0.6274 -0.0000
vn 0.5506 0.6274 -0.5506
vn 0.2980 0.6274 -0.7194
vn 0.0000 0.6274 -0.7787
vn -0.2980 0.6274 -0.7194
vn -0.5506 0.6274 -0.5506
vn -0.7194 0.6274 -0.2980
vn -0.7787 0.6274 -0.0000
vn -0.7194 0.6274 0.2980
vn -0.5506 0.6274 0.5506
vn -0.2980 0.6274 0.7194
vn 0.0000 0.6274 0.7787
vn 0.2980 0.6274 0.7194
vn 0.5506 0.6274 0.5506
vn 0.7194 0.6274 0.2980
vn 0.8574 0.3726 -0.3551
vn 0.9280 0.3726 -0.0000
vn 0.6562 0.3726 -0.6562
vn 0.3551 0.3726 -0.8574
vn 0.0000 0.3726 -0.9280
vn -0.3551 0.3726 -0.8574
vn -0.6562 0.3726 -0.6562
vn -0.8574 0.3726 -0.3551
vn -0.9280 0.3726 -0.0000
vn -0.8574 0.3726 0.3551
vn -0.6562 0.3726 0.6562
vn -0.3551 0.3726 0.8573
vn -0.0000 0.3726 0.9280
vn 0.3551 0.3726 0.8573
vn 0.6562 0.3726 0.6562
vn 0.8573 0.3726 0.3551
vn -0.6894 0.6657 -0.2856
vn -0.7462 0.6657 0.0000
vn -0.6894 0.6658 0.2855
vn -0.5276 0.6658 0.5276
vn -0.2856 0.6657 0.6894
vn 0.0000 0.6657 0.7462
vn 0.2855 0.6658 0.6894
vn 0.5276 0.6658 0.5276
vn 0.6894 0.6658 0.2855
vn 0.7462 0.6657 0.0000
vn 0.6894 0.6657 -0.2856
vn 0.5276 0.6657 -0.5276
vn 0.2856 0.6657 -0.6894
vn 0.0000 0.6657 -0.7462
vn -0.2856 0.6657 -0.6894
vn -0.5276 0.6657 -0.5276
vn 0.6071 -0.7538 -0.2515
vn 0.6571 -0.7538 -0.0000
vn 0.4647 -0.7538 -0.4647
vn 0.2515 -0.7538 -0.6071
vn -0.2855 0.6658 -0.6894
vn -0.5276 0.6658 -0.5276
vn -0.7462 0.6657 -0.0000
vn -0.6894 0.6657 0.2856
vn -0.5276 0.6657 0.5276
vn -0.2856 0.6658 0.6894
vn -0.0000 0.6658 0.7461
vn 0.2515 -0.7538 0.6071
vn 0.4646 -0.7538 0.4647
vn 0.6070 -0.7538 0.2514
vn 0.0000 1.0000 -0.0000
vn 0.0000 -1.0000 -0.0000
vn 1.0000 0.0000 -0.0000
vn -0.6071 0.7538 0.2514
vn -0.6571 0.7538 0.0000
vn -0.4646 0.7538 0.4647
vn -0.2515 0.7538 0.6071
vn 0.0000 0.7538 0.6571
vn 0.2514 0.7538 0.6071
vn 0.4646 0.7538 0.4646
vn 0.6071 0.7538 0.2514
vn 0.6571 0.7538 0.0000
vn 0.6071 0.7538 -0.2515
vn 0.4647 0.7538 -0.4647
vn 0.2515 0.7538 -0.6071
vn 0.0000 0.7538 -0.6571
vn -0.2515 0.7538 -0.6071
vn -0.4647 0.7538 -0.4647
vn -0.6071 0.7538 -0.2515
# 97 vertex normals

vt 0.4399 0.8413 0.0000
vt 0.3965 0.9063 0.0000
vt 0.3314 0.9498 0.0000
vt 0.2547 0.9651 0.0000
vt 0.1779 0.9498 0.0000
vt 0.1128 0.9063 0.0000
vt 0.0694 0.8413 0.0000
vt 0.0541 0.7645 0.0000
vt 0.0694 0.6878 0.0000
vt 0.1128 0.6227 0.0000
vt 0.1779 0.5792 0.0000
vt 0.2547 0.5639 0.0000
vt 0.3314 0.5792 0.0000
vt 0.3965 0.6227 0.0000
vt 0.4399 0.6878 0.0000
vt 0.4552 0.7645 0.0000
vt 0.0710 0.1048 0.5000
vt 0.0960 0.1048 0.5000
vt 0.0960 0.2512 0.4560
vt 0.0710 0.2512 0.4560
vt 0.1211 0.1048 0.5000
vt 0.1211 0.2512 0.4560
vt 0.1462 0.1048 0.5000
vt 0.1462 0.2512 0.4560
vt 0.1712 0.1048 0.5000
vt 0.1712 0.2512 0.4560
vt 0.1963 0.1048 0.5000
vt 0.1963 0.2512 0.4560
vt 0.2214 0.1048 0.5000
vt 0.2214 0.2512 0.4560
vt 0.2465 0.1048 0.5000
vt 0.2465 0.2512 0.4560
vt 0.2715 0.1048 0.5000
vt 0.2715 0.2512 0.4560
vt 0.2966 0.1048 0.5000
vt 0.2966 0.2512 0.4560
vt 0.3217 0.1048 0.5000
vt 0.3217 0.2512 0.4560
vt 0.3467 0.1048 0.5000
vt 0.3467 0.2512 0.4560
vt 0.3718 0.1048 0.5000
vt 0.3718 0.2512 0.4560
vt 0.3969 0.1048 0.5000
vt 0.3969 0.2512 0.4560
vt 0.4220 0.1048 0.5000
vt 0.4220 0.2512 0.4560
vt 0.4470 0.1048 0.5000
vt 0.4470 0.2512 0.4560
vt 0.4721 0.1048 0.5000
vt 0.4721 0.2512 0.4560
vt 0.0960 0.3976 0.4025
vt 0.0710 0.3976 0.4025
vt 0.1211 0.3976 0.4025
vt 0.1462 0.3976 0.4025
vt 0.1712 0.3976 0.4025
vt 0.1963 0.3976 0.4025
vt 0.2214 0.3976 0.4025
vt 0.2465 0.3976 0.4025
vt 0.2715 0.3976 0.4025
vt 0.2966 0.3976 0.4025
vt 0.3217 0.3976 0.4025
vt 0.3467 0.3976 0.4025
vt 0.3718 0.3976 0.4025
vt 0.3969 0.3976 0.4025
vt 0.4220 0.3976 0.4025
vt 0.4470 0.3976 0.4025
vt 0.4721 0.3976 0.4025
vt 0.4399 0.6844 0.0000
vt 0.4552 0.7611 0.0000
vt 0.4399 0.8379 0.0000
vt 0.3965 0.9030 0.0000
vt 0.3314 0.9464 0.0000
vt 0.2547 0.9617 0.0000
vt 0.1779 0.9464 0.0000
vt 0.1128 0.9030 0.0000
vt 0.0694 0.8379 0.0000
vt 0.0541 0.7611 0.0000
vt 0.0694 0.6844 0.0000
vt 0.1128 0.6193 0.0000
vt 0.1779 0.5758 0.0000
vt 0.2547 0.5606 0.0000
vt 0.3314 0.5758 0.0000
vt 0.3965 0.6193 0.0000
vt 0.0960 0.5059 0.4025
vt 0.0710 0.5059 0.4025
vt 0.1211 0.5059 0.4025
vt 0.1462 0.5059 0.4025
vt 0.1712 0.5059 0.4025
vt 0.1963 0.5059 0.4025
vt 0.2214 0.5059 0.4025
vt 0.2465 0.5059 0.4025
vt 0.2715 0.5059 0.4025
vt 0.2966 0.5059 0.4025
vt 0.3217 0.5059 0.4025
vt 0.3467 0.5059 0.4025
vt 0.3718 0.5059 0.4025
vt 0.3969 0.5059 0.4025
vt 0.4220 0.5059 0.4025
vt 0.4470 0.5059 0.4025
vt 0.4721 0.5059 0.4025
vt 0.0960 0.5059 0.3843
vt 0.0710 0.5059 0.3843
vt 0.1211 0.5059 0.3843
vt 0.1462 0.5059 0.3843
vt 0.1712 0.5059 0.3843
vt 0.1963 0.5059 0.3843
vt 0.2214 0.5059 0.3843
vt 0.2465 0.5059 0.3843
vt 0.2715 0.5059 0.3843
vt 0.2966 0.5059 0.3843
vt 0.3217 0.5059 0.3843
vt 0.3467 0.5059 0.3843
vt 0.3718 0.5059 0.3843
vt 0.3969 0.5059 0.3843
vt 0.4220 0.5059 0.3843
vt 0.4470 0.5059 0.3843
vt 0.4721 0.5059 0.3843
vt 0.8908 0.5025 0.5000
vt 0.9158 0.5025 0.5000
vt 0.9158 0.1014 0.5000
vt 0.8908 0.1014 0.5000
vt 0.5147 0.5025 0.5000
vt 0.5398 0.5025 0.5000
vt 0.5398 0.1014 0.5000
vt 0.5147 0.1014 0.5000
vt 0.5648 0.5025 0.5000
vt 0.5648 0.1014 0.5000
vt 0.5899 0.5025 0.5000
vt 0.5899 0.1014 0.5000
vt 0.6150 0.5025 0.5000
vt 0.6150 0.1014 0.5000
vt 0.6401 0.5025 0.5000
vt 0.6401 0.1014 0.5000
vt 0.6651 0.5025 0.5000
vt 0.6651 0.1014 0.5000
vt 0.6902 0.5025 0.5000
vt 0.6902 0.1014 0.5000
vt 0.7153 0.5025 0.5000
vt 0.7153 0.1014 0.5000
vt 0.7403 0.5025 0.5000
vt 0.7403 0.1014 0.5000
vt 0.7654 0.5025 0.5000
vt 0.7654 0.1014 0.5000
vt 0.7905 0.5025 0.5000
vt 0.7905 0.1014 0.5000
vt 0.8155 0.5025 0.5000
vt 0.8155 0.1014 0.5000
vt 0.8406 0.5025 0.5000
vt 0.8406 0.1014 0.5000
vt 0.8657 0.5025 0.5000
vt 0.8657 0.1014 0.5000
# 151 texture coords

o Cylinder001
g Cylinder001
usemtl wire_006135006
s 1
f 1/1/1 2/2/2 3/3/3 4/4/4 5/5/5 6/6/6 7/7/7 8/8/8 9/9/9 10/10/10 11/11/11 12/12/12 13/13/13 14/14/14 15/15/15 16/16/16 
s 8
f 16/17/16 15/18/15 17/19/17 18/20/18 
f 15/18/15 14/21/14 19/22/19 17/19/17 
f 14/21/14 13/23/13 20/24/20 19/22/19 
f 13/23/13 12/25/12 21/26/21 20/24/20 
f 12/25/12 11/27/11 22/28/22 21/26/21 
f 11/27/11 10/29/10 23/30/23 22/28/22 
f 10/29/10 9/31/9 24/32/24 23/30/23 
f 9/31/9 8/33/8 25/34/25 24/32/24 
f 8/33/8 7/35/7 26/36/26 25/34/25 
f 7/35/7 6/37/6 27/38/27 26/36/26 
f 6/37/6 5/39/5 28/40/28 27/38/27 
f 5/39/5 4/41/4 29/42/29 28/40/28 
f 4/41/4 3/43/3 30/44/30 29/42/29 
f 3/43/3 2/45/2 31/46/31 30/44/30 
f 2/45/2 1/47/1 32/48/32 31/46/31 
f 1/47/1 16/49/16 18/50/18 32/48/32 
f 18/20/18 17/19/17 33/51/33 34/52/34 
f 17/19/17 19/22/19 35/53/35 33/51/33 
f 19/22/19 20/24/20 36/54/36 35/53/35 
f 20/24/20 21/26/21 37/55/37 36/54/36 
f 21/26/21 22/28/22 38/56/38 37/55/37 
f 22/28/22 23/30/23 39/57/39 38/56/38 
f 23/30/23 24/32/24 40/58/40 39/57/39 
f 24/32/24 25/34/25 41/59/41 40/58/40 
f 25/34/25 26/36/26 42/60/42 41/59/41 
f 26/36/26 27/38/27 43/61/43 42/60/42 
f 27/38/27 28/40/28 44/62/44 43/61/43 
f 28/40/28 29/42/29 45/63/45 44/62/44 
f 29/42/29 30/44/30 46/64/46 45/63/45 
f 30/44/30 31/46/31 47/65/47 46/64/46 
f 31/46/31 32/48/32 48/66/48 47/65/47 
f 32/48/32 18/50/18 34/67/34 48/66/48 
s 1
f 49/68/49 50/69/50 51/70/51 52/71/52 53/72/53 54/73/54 55/74/55 56/75/56 57/76/57 58/77/58 59/78/59 60/79/60 61/80/61 62/81/62 63/82/63 64/83/64 
s off
f 34/52/34 33/51/33 65/84/65 66/85/66 
f 33/51/33 35/53/35 67/86/67 65/84/65 
f 35/53/35 36/54/36 68/87/68 67/86/67 
f 36/54/36 37/55/37 69/88/62 68/87/68 
f 37/55/37 38/56/38 70/89/69 69/88/62 
f 38/56/38 39/57/39 71/90/70 70/89/69 
f 39/57/39 40/58/40 72/91/49 71/90/70 
f 40/58/40 41/59/41 73/92/71 72/91/49 
f 41/59/41 42/60/42 74/93/72 73/92/71 
f 42/60/42 43/61/43 75/94/73 74/93/72 
f 43/61/43 44/62/44 76/95/74 75/94/73 
f 44/62/44 45/63/45 77/96/75 76/95/74 
f 45/63/45 46/64/46 78/97/76 77/96/75 
f 46/64/46 47/65/47 79/98/77 78/97/76 
f 47/65/47 48/66/48 80/99/78 79/98/77 
f 48/66/48 34/67/34 66/100/66 80/99/78 
f 66/85/66 65/84/65 65/84/79 66/85/79 
f 65/84/65 67/86/67 67/86/79 65/84/79 
f 67/86/67 68/87/68 68/87/79 67/86/79 
f 68/87/68 69/88/62 69/88/80 68/87/79 
f 69/88/62 70/89/69 70/89/80 69/88/80 
f 70/89/69 71/90/70 71/90/80 70/89/80 
f 71/90/70 72/91/49 72/91/80 71/90/80 
f 72/91/49 73/92/71 73/92/81 72/91/80 
f 73/92/71 74/93/72 74/93/80 73/92/81 
f 74/93/72 75/94/73 75/94/79 74/93/80 
f 75/94/73 76/95/74 76/95/81 75/94/79 
f 76/95/74 77/96/75 77/96/80 76/95/81 
f 77/96/75 78/97/76 78/97/79 77/96/80 
f 78/97/76 79/98/77 79/98/79 78/97/79 
f 79/98/77 80/99/78 80/99/79 79/98/79 
f 80/99/78 66/100/66 66/100/79 80/99/79 
f 66/85/79 65/84/79 81/101/82 82/102/83 
f 65/84/79 67/86/79 83/103/84 81/101/82 
f 67/86/79 68/87/79 84/104/85 83/103/84 
f 68/87/79 69/88/80 85/105/86 84/104/85 
f 69/88/80 70/89/80 86/106/87 85/105/86 
f 70/89/80 71/90/80 87/107/88 86/106/87 
f 71/90/80 72/91/80 88/108/89 87/107/88 
f 72/91/80 73/92/81 89/109/90 88/108/89 
f 73/92/81 74/93/80 90/110/91 89/109/90 
f 74/93/80 75/94/79 91/111/92 90/110/91 
f 75/94/79 76/95/81 92/112/93 91/111/92 
f 76/95/81 77/96/80 93/113/94 92/112/93 
f 77/96/80 78/97/79 94/114/95 93/113/94 
f 78/97/79 79/98/79 95/115/96 94/114/95 
f 79/98/79 80/99/79 96/116/97 95/115/96 
f 80/99/79 66/100/79 82/117/83 96/116/97 
f 82/118/83 81/119/82 51/120/51 50/121/50 
f 81/122/82 83/123/84 52/124/52 51/125/51 
f 83/123/84 84/126/85 53/127/53 52/124/52 
f 84/126/85 85/128/86 54/129/54 53/127/53 
f 85/128/86 86/130/87 55/131/55 54/129/54 
f 86/130/87 87/132/88 56/133/56 55/131/55 
f 87/132/88 88/134/89 57/135/57 56/133/56 
f 88/134/89 89/136/90 58/137/58 57/135/57 
f 89/136/90 90/138/91 59/139/59 58/137/58 
f 90/138/91 91/140/92 60/141/60 59/139/59 
f 91/140/92 92/142/93 61/143/61 60/141/60 
f 92/142/93 93/144/94 62/145/62 61/143/61 
f 93/144/94 94/146/95 63/147/63 62/145/62 
f 94/146/95 95/148/96 64/149/64 63/147/63 
f 95/148/96 96/150/97 49/151/49 64/149/64 
f 96/150/97 82/118/83 50/121/50 49/151/49 
# 98 polygons

